<?xml version="1.0" encoding="utf-8"?>
<!-- Generator: Adobe Illustrator 22.1.0, SVG Export Plug-In . SVG Version: 6.00 Build 0)  -->
<svg version="1.1" id="Слой_1" xmlns="http://www.w3.org/2000/svg" xmlns:xlink="http://www.w3.org/1999/xlink" x="0px" y="0px"
	 viewBox="0 0 11.5 11.5" style="enable-background:new 0 0 11.5 11.5;" xml:space="preserve">
<style type="text/css">
	.st0{fill:#FFFFFF;}
</style>
<path id="facebook-square" class="st0" d="M11.5,1.2v9c0,0.7-0.6,1.2-1.2,1.2H8.1V6.9h1.6l0.2-1.7H8.1V4.1c0-0.5,0.1-0.8,0.9-0.8
	h0.9V1.7C9.4,1.7,9,1.6,8.5,1.6c-1.1,0-2.1,0.8-2.2,2c0,0.1,0,0.2,0,0.4v1.3H4.7V7h1.6v4.5H1.2c-0.7,0-1.2-0.6-1.2-1.2v-9
	C0,0.6,0.6,0,1.2,0h9C10.9,0,11.5,0.6,11.5,1.2z"/>
</svg>
