<svg xmlns="http://www.w3.org/2000/svg" viewBox="0 0 11.492 11.492">
  <defs>
    <style>
      .cls-1 {
        fill: #f5f5f5;
      }
    </style>
  </defs>
  <path id="facebook-square" class="cls-1" d="M11.492,33.231v9.03a1.232,1.232,0,0,1-1.231,1.231H8.073V38.947H9.627l.223-1.734H8.073V36.1c0-.5.139-.844.859-.844H9.85V33.711a12.345,12.345,0,0,0-1.339-.069A2.091,2.091,0,0,0,6.28,35.935v1.28H4.72v1.734H6.282v4.543H1.231A1.232,1.232,0,0,1,0,42.261v-9.03A1.232,1.232,0,0,1,1.231,32h9.03A1.232,1.232,0,0,1,11.492,33.231Z" transform="translate(0 -32)"/>
</svg>
