<?xml version="1.0" encoding="utf-8"?>
<!-- Generator: Adobe Illustrator 22.1.0, SVG Export Plug-In . SVG Version: 6.00 Build 0)  -->
<svg version="1.1" id="Слой_1" xmlns="http://www.w3.org/2000/svg" xmlns:xlink="http://www.w3.org/1999/xlink" x="0px" y="0px"
	 viewBox="0 0 11.2 11.2" style="enable-background:new 0 0 11.2 11.2;" xml:space="preserve">
<style type="text/css">
	.st0{fill:#FFFFFF;}
</style>
<path id="instagram" class="st0" d="M5.6,2.7C4,2.7,2.7,4,2.7,5.6S4,8.5,5.6,8.5s2.9-1.3,2.9-2.9l0,0C8.5,4,7.2,2.7,5.6,2.7L5.6,2.7
	z M5.6,7.5c-1,0-1.9-0.8-1.9-1.9c0-1,0.8-1.9,1.9-1.9s1.9,0.8,1.9,1.9C7.5,6.6,6.6,7.5,5.6,7.5L5.6,7.5z M9.3,2.6
	C9.3,3,9,3.3,8.6,3.3S7.9,3,7.9,2.6s0.3-0.7,0.7-0.7l0,0C9,1.9,9.3,2.2,9.3,2.6L9.3,2.6L9.3,2.6z M11.2,3.3c0-0.9-0.3-1.7-0.9-2.3
	C9.6,0.3,8.8,0,7.9,0S4.2,0,3.3,0S1.6,0.3,0.9,0.9C0.3,1.6,0,2.4,0,3.3S0,7,0,7.9s0.3,1.7,0.9,2.4c0.6,0.6,1.5,0.9,2.3,0.9
	c0.9,0.1,3.7,0.1,4.6,0c0.9,0,1.7-0.3,2.3-0.9C10.7,9.7,11,8.8,11,8C11.2,7,11.2,4.2,11.2,3.3L11.2,3.3z M10,8.9
	C9.8,9.4,9.4,9.8,8.9,10c-1.1,0.2-2.2,0.3-3.3,0.2c-1.1,0.1-2.2,0-3.3-0.2C1.8,9.8,1.4,9.4,1.2,8.9C1,7.8,0.9,6.7,1,5.6
	C0.9,4.5,1,3.4,1.2,2.3c0.2-0.5,0.6-0.9,1.1-1.1C3.4,1,4.5,0.9,5.6,1c1.1-0.1,2.2,0,3.3,0.2C9.4,1.4,9.8,1.8,10,2.3
	c0.2,1.1,0.3,2.2,0.2,3.3C10.3,6.7,10.2,7.8,10,8.9z"/>
</svg>
