<svg xmlns="http://www.w3.org/2000/svg" viewBox="0 0 11.209 11.207">
  <defs>
    <style>
      .cls-1 {
        fill: #f5f5f5;
      }
    </style>
  </defs>
  <path id="instagram" class="cls-1" d="M5.531,34.555A2.873,2.873,0,1,0,8.4,37.429,2.869,2.869,0,0,0,5.531,34.555Zm0,4.741A1.868,1.868,0,1,1,7.4,37.429,1.871,1.871,0,0,1,5.531,39.3Zm3.661-4.859a.67.67,0,1,1-.67-.67A.669.669,0,0,1,9.192,34.438Zm1.9.68a3.317,3.317,0,0,0-.905-2.348,3.338,3.338,0,0,0-2.348-.905c-.925-.053-3.7-.053-4.624,0a3.334,3.334,0,0,0-2.348.9,3.328,3.328,0,0,0-.905,2.348c-.053.925-.053,3.7,0,4.624A3.317,3.317,0,0,0,.87,42.087a3.343,3.343,0,0,0,2.348.905c.925.053,3.7.053,4.624,0a3.317,3.317,0,0,0,2.348-.905,3.338,3.338,0,0,0,.905-2.348C11.148,38.814,11.148,36.043,11.1,35.118ZM9.9,40.732A1.891,1.891,0,0,1,8.834,41.8a12.351,12.351,0,0,1-3.3.225,12.447,12.447,0,0,1-3.3-.225,1.891,1.891,0,0,1-1.065-1.065,12.351,12.351,0,0,1-.225-3.3,12.447,12.447,0,0,1,.225-3.3A1.891,1.891,0,0,1,2.228,33.06a12.351,12.351,0,0,1,3.3-.225,12.447,12.447,0,0,1,3.3.225A1.891,1.891,0,0,1,9.9,34.125a12.351,12.351,0,0,1,.225,3.3A12.344,12.344,0,0,1,9.9,40.732Z" transform="translate(0.075 -31.825)"/>
</svg>
