<?xml version="1.0" encoding="utf-8"?>
<!-- Generator: Adobe Illustrator 22.1.0, SVG Export Plug-In . SVG Version: 6.00 Build 0)  -->
<svg version="1.1" id="Слой_1" xmlns="http://www.w3.org/2000/svg" xmlns:xlink="http://www.w3.org/1999/xlink" x="0px" y="0px"
	 viewBox="0 0 460 125" style="enable-background:new 0 0 460 125;" xml:space="preserve">
<style type="text/css">
	.st0{fill:#FFFFFF;}
</style>
<path id="XMLID_39_" class="st0" d="M252.6,45c13.7-1.2,13.7-1.2,13.7,11.9c0,7.2,0.2,14.3-0.1,21.5c-0.1,3.6,1.4,5.5,4.6,6.7
	c4.6,1.6,9.1,1.7,13.7,0c3.2-1.2,4.7-3.2,4.6-6.8c-0.2-10.9-0.1-21.9-0.1-33.2c4.6,0,8.6,0,13.2,0c0.2,1.1,0.5,2.4,0.5,3.8
	c0,19.3-0.1,38.7-0.1,58c0,8.4-4.4,13.7-12.2,16.1c-9.8,3.1-19.4,3-28.2-2.9c-4.2-2.8-7.8-6.4-8.4-12.4c4.6,0,8.9-0.2,13.2,0.1
	c1.5,0.1,3,1.4,4.2,2.5c4,3.5,8.8,4.3,13.2,1.9c3.3-1.8,4.4-2,4.7-8.4c-0.4-2.1-0.1-4.4-0.1-5.6c-7.2,0-14.2,0.6-21-0.2
	c-9.1-1.1-14.9-7.4-15.3-16.6C252.2,69.4,252.6,57.3,252.6,45z"/>
<path id="XMLID_36_" class="st0" d="M16.1,45.1c4.1-1.2,7.9-2,11.4-2c5,0,9.8,0.6,11.8,1.7c2,1,13.1,5.8,13.2,13.6
	c0.2,11.2,0.2,17.9,0.2,27.3c-0.2,8.9-7.3,14.7-17.2,15.9c-6.5,0.2-12.9,0.4-18.4-0.7c-10.9-2.3-15.9-8.6-16-19.9
	C0.9,62.7,1.1,44.4,1,26.1c0-3.2,1.1-4.6,4.5-4.4c3.1,0,4.5,0,6.1-0.1c3.8-0.1,4.5,2,4.5,4.5C16.1,32.8,16.1,40.7,16.1,45.1z
	 M16.1,80.7c0,5.2,4,7.7,11,7.7c7.5,0,12.2-2.5,12.2-7.1c0-6.2,0-10.7,0-17c0-8.6-4.5-10.1-12.4-10.1c-7.8,0.3-10.2,1.7-10.8,9.5"/>
<path id="XMLID_33_" class="st0" d="M182.3,43.4c6.9,0,13.4-0.6,19.7,0.1c11,1.2,16.1,6,17.1,16.8c0.8,8,0.7,16.2,0,24.3
	c-1,10.1-7,15.7-18.4,17.1c-5.7,0.7-11.8,0.3-17.4-0.9c-9.7-2-14.7-7.3-15-17.1c-0.6-20.5-0.2-40.9-0.2-61.3
	c0.5-0.3,0.8-0.5,1.1-0.6c15.6-0.2,12.9-1.7,13.1,12.5C182.4,37.7,182.3,41,182.3,43.4z M182.3,72.7c0,3,0.3,6.1-0.1,9
	c-0.4,3.6,1.3,6.2,4.2,7.1c3.5,1.1,7.4,1.9,10.9,1.5c5.6-0.7,7.9-4.2,7.9-9.7c0-4.8,0-9.5,0-14.3c0-8.2-0.8-9.2-8.6-11.6
	c-7.2-2.1-14.3,3-14.3,10.4C182.3,67.6,182.3,70.1,182.3,72.7z"/>
<path id="XMLID_30_" class="st0" d="M350.6,79.2c-1.1,4.7-0.5,8.3,4.3,10.3c5.2,2.2,13,1.6,15.7-2.7c3.5-5.8,8.5-3.6,13-3.8
	c0.7,0,2.3,2.7,2.1,3.8c-1.9,9.8-9.4,13.9-18.1,14.7c-6.9,0.6-14.3-0.4-21-2.2c-7-1.9-10.6-7.8-10.7-15.2
	c-0.2-6.8-0.2-13.7-0.1-20.5c0.2-11.1,4.5-16.5,15.3-19.3c8-2.1,16-1.9,23.8,0.9c7.7,2.8,11.9,8.7,11.9,16.5
	c-0.1,7.6-4.1,13.3-12.3,15.3c-6.4,1.5-13.1,1.4-19.7,1.9C353.4,79.1,352,79.2,350.6,79.2z M350.2,68.5c4.9,0,9.1,0.4,13.1-0.1
	c2.7-0.3,5.4-1.5,7.6-3.1c3.1-2.3,2.9-5.6-0.1-8c-3.2-2.6-13.6-3-17.8-0.7C348,59.5,351.1,64.1,350.2,68.5z"/>
<path id="XMLID_27_" class="st0" d="M121.1,66.6c0.3-11.4-0.6-13.5-7.8-14.1c-8.6-0.7-12.6-0.3-15.4,9.2c-3.9,0-7.8,0-11.7,0
	c-0.8-5.9,2.1-11.9,7.5-14.7c10.5-5.4,21.3-5.4,32-0.6c6.7,3,9.2,9,9.6,15.8c0.4,7.3,0.6,14.7-0.1,21.9
	c-1.3,11.5-6.4,16.6-17.8,17.8c-5.7,0.6-11.8,0.1-17.5-0.9c-10.4-2-15.7-9.4-14.9-19.4c0.6-7.9,8.1-14.2,17.8-14.8
	C108.8,66.3,114.8,66.6,121.1,66.6z M121.3,76.8c-4.9-0.2-9.3-0.6-13.7-0.6c-4.8,0.1-7.9,2.9-8.2,6.8c-0.3,5,3.4,9,8.6,9.4
	c8.4,0.5,13-2.5,13.2-8.5C121.3,81.9,121.3,79.8,121.3,76.8z"/>
<path id="XMLID_26_" class="st0" d="M457,54.1c-6.2,1.4-12,2.4-17.7,4c-3.8,1-5.2,3.9-5.1,8c0.2,10,0,20,0.1,30c0.1,3.6-1,5.4-4.9,5
	c-2.7-0.3-5.3,0-8.8,0c0-10.6-0.2-20.9,0.1-31.1c0.5-18.1,9.6-26.2,27.9-25.3c0.6,0,1.3,0.1,1.9,0.1C458.2,44.9,459.5,46.9,457,54.1
	z"/>
<g id="XMLID_4_">
	<path id="XMLID_24_" class="st0" d="M190.1,5.9h3.2v2.2h0.1c0.3-0.4,0.5-0.7,0.8-1c0.3-0.3,0.6-0.6,1-0.8c0.4-0.2,0.8-0.4,1.3-0.5
		c0.5-0.1,1-0.2,1.6-0.2c0.9,0,1.8,0.2,2.6,0.6c0.8,0.4,1.4,1.1,1.7,1.9c0.6-0.8,1.2-1.4,2-1.9c0.8-0.5,1.7-0.7,2.8-0.7
		c1.6,0,2.9,0.4,3.8,1.2c0.9,0.8,1.4,2.1,1.4,4v10.7h-3.4v-9c0-0.6,0-1.2-0.1-1.7c0-0.5-0.2-0.9-0.3-1.3c-0.2-0.4-0.5-0.7-0.9-0.9
		c-0.4-0.2-0.9-0.3-1.6-0.3c-1.2,0-2,0.4-2.5,1.1c-0.5,0.7-0.8,1.7-0.8,3.1v9.1h-3.4v-9.9c0-1.1-0.2-1.9-0.6-2.4
		c-0.4-0.5-1.1-0.8-2.1-0.8c-0.4,0-0.9,0.1-1.3,0.3c-0.4,0.2-0.8,0.4-1.1,0.8c-0.3,0.3-0.6,0.8-0.7,1.3c-0.2,0.5-0.3,1.1-0.3,1.7
		v9.2h-3.4V5.9z"/>
	<path id="XMLID_21_" class="st0" d="M248.4,17.9c0,0.4,0.1,0.7,0.2,0.9c0.1,0.2,0.3,0.3,0.6,0.3c0.1,0,0.2,0,0.4,0
		c0.1,0,0.3,0,0.5-0.1v2.4c-0.1,0-0.3,0.1-0.5,0.1c-0.2,0-0.4,0.1-0.6,0.1c-0.2,0-0.4,0.1-0.6,0.1c-0.2,0-0.4,0-0.5,0
		c-0.7,0-1.3-0.1-1.7-0.4c-0.5-0.3-0.8-0.8-0.9-1.5c-0.7,0.7-1.5,1.1-2.5,1.4c-1,0.3-1.9,0.4-2.9,0.4c-0.7,0-1.4-0.1-2-0.3
		c-0.6-0.2-1.2-0.5-1.7-0.8c-0.5-0.4-0.9-0.8-1.2-1.4c-0.3-0.6-0.4-1.2-0.4-2c0-1,0.2-1.7,0.5-2.3c0.3-0.6,0.8-1.1,1.4-1.4
		c0.6-0.3,1.2-0.6,1.9-0.7c0.7-0.1,1.4-0.3,2.1-0.3c0.6-0.1,1.2-0.2,1.8-0.3c0.6,0,1.1-0.1,1.5-0.3c0.4-0.1,0.8-0.3,1-0.6
		c0.2-0.2,0.4-0.6,0.4-1.1c0-0.4-0.1-0.8-0.3-1.1c-0.2-0.3-0.5-0.5-0.8-0.6c-0.3-0.1-0.7-0.2-1-0.3c-0.4,0-0.7-0.1-1.1-0.1
		c-1,0-1.7,0.2-2.4,0.6c-0.6,0.4-1,1-1,1.9h-3.4c0.1-1,0.3-1.8,0.7-2.5c0.4-0.7,1-1.2,1.6-1.6c0.6-0.4,1.4-0.7,2.2-0.8
		c0.8-0.2,1.7-0.2,2.5-0.2c0.8,0,1.5,0.1,2.2,0.2c0.7,0.2,1.4,0.4,2,0.8c0.6,0.4,1.1,0.8,1.4,1.4c0.4,0.6,0.5,1.3,0.5,2.1V17.9z
		 M244.9,13.6c-0.5,0.3-1.2,0.5-1.9,0.6c-0.8,0.1-1.5,0.2-2.3,0.3c-0.4,0.1-0.7,0.1-1,0.3c-0.3,0.1-0.6,0.3-0.9,0.4
		c-0.3,0.2-0.5,0.4-0.6,0.7c-0.1,0.3-0.2,0.7-0.2,1.1c0,0.4,0.1,0.7,0.3,1c0.2,0.3,0.5,0.5,0.8,0.6c0.3,0.1,0.6,0.3,1,0.3
		c0.4,0.1,0.7,0.1,1,0.1c0.4,0,0.8,0,1.2-0.1c0.4-0.1,0.9-0.3,1.2-0.5c0.4-0.2,0.7-0.5,1-0.9c0.3-0.4,0.4-0.8,0.4-1.4V13.6z"/>
	<path id="XMLID_18_" class="st0" d="M285.6,20.6c0,2.3-0.7,4.1-2,5.2c-1.3,1.1-3.2,1.7-5.6,1.7c-0.8,0-1.6-0.1-2.3-0.2
		c-0.8-0.2-1.5-0.4-2.2-0.8c-0.6-0.4-1.2-0.9-1.6-1.5c-0.4-0.6-0.7-1.4-0.8-2.3h3.4c0.1,0.5,0.3,0.9,0.5,1.2
		c0.2,0.3,0.5,0.5,0.9,0.7c0.3,0.2,0.7,0.3,1.1,0.3c0.4,0,0.8,0.1,1.3,0.1c1.4,0,2.4-0.3,3-1c0.6-0.7,1-1.7,1-2.9v-2.4h-0.1
		c-0.5,0.9-1.1,1.5-2,2c-0.8,0.5-1.7,0.7-2.7,0.7c-1.2,0-2.3-0.2-3.2-0.6c-0.9-0.4-1.6-1-2.2-1.8c-0.6-0.7-1-1.6-1.2-2.6
		c-0.3-1-0.4-2-0.4-3.1c0-1,0.2-2,0.5-3c0.3-0.9,0.8-1.8,1.4-2.5c0.6-0.7,1.3-1.3,2.2-1.7c0.9-0.4,1.9-0.6,2.9-0.6
		c1,0,1.9,0.2,2.7,0.6c0.8,0.4,1.4,1.1,1.9,1.9h0.1V5.9h3.4V20.6z M278,18.7c0.8,0,1.4-0.2,1.9-0.5c0.5-0.3,1-0.7,1.3-1.2
		c0.3-0.5,0.6-1.1,0.7-1.7c0.1-0.6,0.2-1.3,0.2-2s-0.1-1.3-0.2-1.9c-0.2-0.6-0.4-1.2-0.7-1.6c-0.3-0.5-0.8-0.9-1.3-1.1
		c-0.5-0.3-1.2-0.4-1.9-0.4c-0.8,0-1.4,0.2-1.9,0.5c-0.5,0.3-0.9,0.7-1.3,1.2c-0.3,0.5-0.5,1.1-0.7,1.7c-0.1,0.6-0.2,1.3-0.2,1.9
		c0,0.6,0.1,1.3,0.2,1.9c0.2,0.6,0.4,1.2,0.7,1.6c0.3,0.5,0.7,0.9,1.3,1.2C276.7,18.5,277.3,18.7,278,18.7z"/>
	<path id="XMLID_15_" class="st0" d="M321.2,17.9c0,0.4,0.1,0.7,0.2,0.9c0.1,0.2,0.3,0.3,0.6,0.3c0.1,0,0.2,0,0.4,0
		c0.1,0,0.3,0,0.5-0.1v2.4c-0.1,0-0.3,0.1-0.5,0.1c-0.2,0-0.4,0.1-0.6,0.1c-0.2,0-0.4,0.1-0.6,0.1c-0.2,0-0.4,0-0.5,0
		c-0.7,0-1.3-0.1-1.7-0.4c-0.5-0.3-0.8-0.8-0.9-1.5c-0.7,0.7-1.5,1.1-2.5,1.4c-1,0.3-1.9,0.4-2.9,0.4c-0.7,0-1.4-0.1-2-0.3
		c-0.6-0.2-1.2-0.5-1.7-0.8c-0.5-0.4-0.9-0.8-1.2-1.4c-0.3-0.6-0.4-1.2-0.4-2c0-1,0.2-1.7,0.5-2.3c0.3-0.6,0.8-1.1,1.4-1.4
		c0.6-0.3,1.2-0.6,1.9-0.7c0.7-0.1,1.4-0.3,2.1-0.3c0.6-0.1,1.2-0.2,1.8-0.3c0.6,0,1.1-0.1,1.5-0.3c0.4-0.1,0.8-0.3,1-0.6
		c0.2-0.2,0.4-0.6,0.4-1.1c0-0.4-0.1-0.8-0.3-1.1c-0.2-0.3-0.5-0.5-0.8-0.6c-0.3-0.1-0.7-0.2-1-0.3c-0.4,0-0.7-0.1-1.1-0.1
		c-1,0-1.7,0.2-2.4,0.6c-0.6,0.4-1,1-1,1.9H308c0.1-1,0.3-1.8,0.7-2.5c0.4-0.7,1-1.2,1.6-1.6c0.6-0.4,1.4-0.7,2.2-0.8
		c0.8-0.2,1.7-0.2,2.5-0.2c0.8,0,1.5,0.1,2.2,0.2c0.7,0.2,1.4,0.4,2,0.8c0.6,0.4,1.1,0.8,1.4,1.4c0.4,0.6,0.5,1.3,0.5,2.1V17.9z
		 M317.8,13.6c-0.5,0.3-1.2,0.5-1.9,0.6c-0.8,0.1-1.5,0.2-2.3,0.3c-0.4,0.1-0.7,0.1-1,0.3c-0.3,0.1-0.6,0.3-0.9,0.4
		c-0.3,0.2-0.5,0.4-0.6,0.7c-0.1,0.3-0.2,0.7-0.2,1.1c0,0.4,0.1,0.7,0.3,1c0.2,0.3,0.5,0.5,0.8,0.6c0.3,0.1,0.6,0.3,1,0.3
		c0.4,0.1,0.7,0.1,1,0.1c0.4,0,0.8,0,1.2-0.1c0.4-0.1,0.9-0.3,1.2-0.5c0.4-0.2,0.7-0.5,1-0.9c0.3-0.4,0.4-0.8,0.4-1.4V13.6z"/>
	<path id="XMLID_13_" class="st0" d="M343.6,5.9h12.6v2.4l-8.9,10.4h9.3v2.7H343V19l8.6-10.4h-8V5.9z"/>
	<path id="XMLID_10_" class="st0" d="M378.5,0h3.4v3.2h-3.4V0z M378.5,5.9h3.4v15.5h-3.4V5.9z"/>
	<path id="XMLID_8_" class="st0" d="M404.8,5.9h3.2v2.3l0.1,0.1c0.5-0.9,1.2-1.5,2-2c0.8-0.5,1.8-0.7,2.8-0.7c1.7,0,3,0.4,4,1.3
		c1,0.9,1.5,2.2,1.5,4v10.6H415v-9.7c0-1.2-0.3-2.1-0.8-2.6c-0.5-0.5-1.2-0.8-2.2-0.8c-0.6,0-1.1,0.1-1.6,0.3
		c-0.5,0.2-0.8,0.5-1.2,0.9c-0.3,0.4-0.6,0.8-0.7,1.3c-0.2,0.5-0.3,1-0.3,1.6v9.1h-3.4V5.9z"/>
	<path id="XMLID_5_" class="st0" d="M443.9,14.5c0,0.6,0.1,1.2,0.3,1.7c0.2,0.6,0.4,1,0.8,1.5c0.3,0.4,0.8,0.8,1.3,1
		c0.5,0.2,1.1,0.4,1.9,0.4c1,0,1.8-0.2,2.4-0.6c0.6-0.4,1.1-1.1,1.4-1.9h3.2c-0.2,0.8-0.5,1.6-0.9,2.2c-0.4,0.7-1,1.2-1.6,1.7
		c-0.6,0.4-1.3,0.8-2.1,1c-0.8,0.2-1.6,0.3-2.4,0.3c-1.2,0-2.3-0.2-3.2-0.6c-0.9-0.4-1.7-1-2.4-1.7c-0.6-0.7-1.1-1.6-1.5-2.6
		c-0.3-1-0.5-2.1-0.5-3.3c0-1.1,0.2-2.1,0.5-3.1c0.3-1,0.8-1.9,1.5-2.6c0.6-0.7,1.4-1.3,2.3-1.8c0.9-0.4,2-0.7,3.1-0.7
		c1.2,0,2.3,0.3,3.3,0.8c1,0.5,1.8,1.2,2.4,2c0.6,0.8,1.1,1.8,1.4,2.9c0.3,1.1,0.4,2.2,0.2,3.4H443.9z M451.9,12.3
		c0-0.5-0.2-1.1-0.3-1.6c-0.2-0.5-0.4-0.9-0.8-1.3c-0.3-0.4-0.7-0.7-1.2-0.9c-0.5-0.2-1-0.3-1.6-0.3c-0.6,0-1.1,0.1-1.6,0.3
		c-0.5,0.2-0.9,0.5-1.3,0.9c-0.3,0.4-0.6,0.8-0.8,1.3c-0.2,0.5-0.3,1-0.3,1.6H451.9z"/>
</g>
</svg>
