<svg xmlns="http://www.w3.org/2000/svg" viewBox="0 0 27.024 19.488">
  <defs>
    <style>
      .cls-1 {
        fill: #2b2e34;
      }
    </style>
  </defs>
  <g id="Group_56" data-name="Group 56" transform="translate(-665.932 -1583.959)">
    <g id="Group_39" data-name="Group 39" transform="translate(665.932 1584.185)">
      <path id="Path_6" data-name="Path 6" class="cls-1" d="M1.352,2.062A11.158,11.158,0,0,1,3.84,1.694a16.527,16.527,0,0,1,4.4.736,3.1,3.1,0,0,1,1.873,2.914c.068,1.863.118,3.728.119,5.593,0,3.41-2.225,4.488-4.585,4.77A12.728,12.728,0,0,1,1.59,15.49c-2.607-.548-3.8-2.058-3.841-4.768-.061-4.381-.01-8.764-.024-13.145,0-.768.263-1.091,1.073-1.054,2.6.118,2.456-.6,2.55,2.505.03.981,0,1.964,0,3.034M1.16,8.668a12.277,12.277,0,0,0,.035,2.273,2.483,2.483,0,0,0,.834,1.551,3.57,3.57,0,0,0,3.836.1,1.7,1.7,0,0,0,1.029-1.7c-.049-1.25-.029-2.505-.018-3.758A2.582,2.582,0,0,0,3.94,4.312,2.553,2.553,0,0,0,1.16,7.187V8.668" transform="translate(2.282 3.48)"/>
    </g>
    <g id="Group_40" data-name="Group 40" transform="translate(680.444 1583.959)">
      <path id="Path_7" data-name="Path 7" class="cls-1" d="M1.352,2.062A11.158,11.158,0,0,1,3.84,1.694a16.527,16.527,0,0,1,4.4.736,3.1,3.1,0,0,1,1.873,2.914c.068,1.863.118,3.728.119,5.593,0,3.41-2.225,4.488-4.585,4.77A12.728,12.728,0,0,1,1.59,15.49c-2.607-.548-3.8-2.058-3.841-4.768-.061-4.381-.01-8.764-.024-13.145,0-.768.263-1.091,1.073-1.054,2.6.118,2.456-.6,2.55,2.505.03.981,0,1.964,0,3.034M1.16,8.668a12.277,12.277,0,0,0,.035,2.273,2.483,2.483,0,0,0,.834,1.551,3.57,3.57,0,0,0,3.836.1,1.7,1.7,0,0,0,1.029-1.7c-.049-1.25-.029-2.505-.018-3.758A2.582,2.582,0,0,0,3.94,4.312,2.553,2.553,0,0,0,1.16,7.187V8.668" transform="translate(2.282 3.48)"/>
    </g>
  </g>
</svg>
