<svg xmlns="http://www.w3.org/2000/svg" viewBox="0 0 27.024 19.488">
  <defs>
    <style>
      .cls-1 {
        fill: #2b2e34;
      }
    </style>
  </defs>
  <g id="Group_57" data-name="Group 57" transform="translate(-665.923 -1701.104)">
    <g id="Group_43" data-name="Group 43" transform="translate(680.435 1701.104)">
      <path id="Path_10" data-name="Path 10" class="cls-1" d="M3.3,5.105a11.158,11.158,0,0,1-2.488.368,16.527,16.527,0,0,1-4.4-.736A3.1,3.1,0,0,1-5.456,1.823C-5.524-.04-5.573-1.905-5.575-3.77c0-3.41,2.225-4.488,4.585-4.77a12.728,12.728,0,0,1,4.056.217c2.607.548,3.8,2.058,3.841,4.768.061,4.381.01,8.764.024,13.145,0,.768-.263,1.091-1.073,1.054-2.6-.118-2.456.6-2.55-2.505-.03-.981,0-1.964,0-3.034M3.5-1.5a12.277,12.277,0,0,0-.035-2.273,2.483,2.483,0,0,0-.834-1.551,3.57,3.57,0,0,0-3.836-.1,1.7,1.7,0,0,0-1.029,1.7c.049,1.25.029,2.505.018,3.758A2.582,2.582,0,0,0,.715,2.855,2.553,2.553,0,0,0,3.5-.02V-1.5" transform="translate(5.575 8.616)"/>
    </g>
    <g id="Group_44" data-name="Group 44" transform="translate(665.923 1701.329)">
      <path id="Path_11" data-name="Path 11" class="cls-1" d="M3.3,5.105a11.158,11.158,0,0,1-2.488.368,16.527,16.527,0,0,1-4.4-.736A3.1,3.1,0,0,1-5.456,1.823C-5.524-.04-5.573-1.905-5.575-3.77c0-3.41,2.225-4.488,4.585-4.77a12.728,12.728,0,0,1,4.056.217c2.607.548,3.8,2.058,3.841,4.768.061,4.381.01,8.764.024,13.145,0,.768-.263,1.091-1.073,1.054-2.6-.118-2.456.6-2.55-2.505-.03-.981,0-1.964,0-3.034M3.5-1.5a12.277,12.277,0,0,0-.035-2.273,2.483,2.483,0,0,0-.834-1.551,3.57,3.57,0,0,0-3.836-.1,1.7,1.7,0,0,0-1.029,1.7c.049,1.25.029,2.505.018,3.758A2.582,2.582,0,0,0,.715,2.855,2.553,2.553,0,0,0,3.5-.02V-1.5" transform="translate(5.575 8.616)"/>
    </g>
  </g>
</svg>
